<svg xmlns="http://www.w3.org/2000/svg" width="145.072" height="32.789" viewBox="0 0 145.072 32.789">
  <g id="logo_standard_en_ligne" transform="translate(311.722 -108.472)">
    <g id="Calque_1" data-name="Calque 1" transform="translate(-311.722 108.472)">
      <path id="Tracé_210" data-name="Tracé 210" d="M217.583,233.887h-4.7a9.048,9.048,0,0,1-4.013-.924,7.97,7.97,0,0,1-1.764-1.224,8.224,8.224,0,0,1-2.182-3.059,8.864,8.864,0,0,1-.586-2.287,8.207,8.207,0,0,1,.365-3.581,8.31,8.31,0,0,1,3.207-4.324,8.106,8.106,0,0,1,3.064-1.309l.564-.121c.02-.112.043-.224.067-.345a11.814,11.814,0,0,1,.962-2.952,10.547,10.547,0,0,1,7.278-5.709,10.61,10.61,0,0,1,3.133-.284,11.5,11.5,0,0,1,2.184.378,10.476,10.476,0,0,1,4.792,2.719l.121.119c.011,0,.029.013.016,0,.62-.166,1.215-.333,1.817-.479a11.959,11.959,0,0,1,1.6-.239,8.32,8.32,0,0,1,2.462.159c.647.125,1.282.3,1.92.474a9.457,9.457,0,0,1,2.014.9,12.142,12.142,0,0,1,2.574,1.911,12.906,12.906,0,0,1,1.714,2.086,11.161,11.161,0,0,1,1.678,4.055c.049.224.105.47.143.709a.208.208,0,0,0,.188.2c.354.078.7.166,1.052.273a6.653,6.653,0,0,1,4.355,6.781,7.222,7.222,0,0,1-.6,2.251,6.457,6.457,0,0,1-3.581,3.357,6.656,6.656,0,0,1-2.43.465H239V239.3a1.119,1.119,0,0,1-.817,1.119,1.062,1.062,0,0,1-.237.029h-7.164a1.076,1.076,0,0,1-1.052-1v-14.4a1.1,1.1,0,0,1,.329-.85,1.012,1.012,0,0,1,.716-.293h7.182a1.054,1.054,0,0,1,1.061,1.029v7.625c.09,0,.161.016.224.016h5.819a5.313,5.313,0,0,0,1.186-10.478,9.816,9.816,0,0,0-1.148-.148,1.96,1.96,0,0,0-.26,0c-.011-.092-.022-.168-.027-.244a10.118,10.118,0,0,0-1.591-4.982,10.942,10.942,0,0,0-5.749-4.572,9.834,9.834,0,0,0-3.849-.564,9.225,9.225,0,0,0-3.708.98l-.13.063a9.49,9.49,0,0,0-6.658-3.523,9.281,9.281,0,0,0-7.141,2.35,9.449,9.449,0,0,0-3.261,6.812.65.65,0,0,1-.134.025,7.018,7.018,0,0,0-5.3,2.509,6.842,6.842,0,0,0-1.667,3.863,7.162,7.162,0,0,0,5.834,7.8,6.569,6.569,0,0,0,1.273.105h4.836v-.28c0-1.119,0-2.238-.011-3.357a5.026,5.026,0,0,1,.6-2.486,4.763,4.763,0,0,1,2.475-2.269,3.82,3.82,0,0,1,1.276-.246c.273,0,.548-.013.821,0a.721.721,0,0,1,.794.727v.072c-.016.716-.022,1.432-.054,2.148a1.827,1.827,0,0,1-.143.557,1.255,1.255,0,0,1-1.072.826,2.882,2.882,0,0,1-.481.034.542.542,0,0,0-.374.134,2.511,2.511,0,0,0-.868,1.443,8.335,8.335,0,0,0-.186,1.311,17.078,17.078,0,0,0,.031,2.486,4.331,4.331,0,0,0,.38,1.513,2.461,2.461,0,0,0,.645.835.624.624,0,0,0,.416.152,3.228,3.228,0,0,1,.671.072,1.209,1.209,0,0,1,.846.727,2.828,2.828,0,0,1,.224,1.085c.018.515.029,1.029.018,1.544-.018.794-.38.933-.949.931a6.794,6.794,0,0,1-1.49-.11,4.187,4.187,0,0,1-2.225-1.374,5.083,5.083,0,0,1-1.343-3.507v-1.376Zm20.5,4.322V225.195h-7.426v13.014Zm-3.706,1.938a.777.777,0,1,0-.783-.781A.777.777,0,0,0,234.375,240.147Zm.018-15.715H233.4c-.1,0-.224-.031-.242.125-.011.09.06.125.239.125h1.925a.338.338,0,0,0,.143,0c.043-.022.094-.076.094-.116a.172.172,0,0,0-.094-.116.447.447,0,0,0-.166,0Z" transform="translate(-204.278 -207.749)" fill="#264a6e"/>
      <g id="Groupe_133" data-name="Groupe 133" transform="translate(54.205 20.595)">
        <path id="Tracé_211" data-name="Tracé 211" d="M72.32,426.242v-3.268a4.764,4.764,0,0,1,1,.051.848.848,0,0,1,.386,1.413.121.121,0,0,0-.025.032v.019a.044.044,0,0,0,.023.025.812.812,0,0,1,.531.875.793.793,0,0,1-.422.7,1.213,1.213,0,0,1-.559.146C72.942,426.248,72.641,426.242,72.32,426.242Zm.5-1.432v.98c.211-.023.422-.027.6-.067a.409.409,0,0,0,.316-.422.445.445,0,0,0-.422-.5C73.153,424.8,72.995,424.81,72.822,424.81Zm0-.422c.234-.015.468.013.595-.211a.5.5,0,0,0,0-.55c-.141-.211-.361-.186-.584-.169Z" transform="translate(-72.32 -422.681)" fill="#264a6e"/>
        <path id="Tracé_212" data-name="Tracé 212" d="M284.955,430.559H284.5a1.23,1.23,0,0,1-.015-.152v-.926a3.026,3.026,0,0,0-.03-.339.268.268,0,0,0-.2-.249.325.325,0,0,0-.344.11.5.5,0,0,0-.11.337v1.214h-.462v-2.033h.439l.046.112a.675.675,0,0,1,1.016.086.757.757,0,0,1,.5-.27.658.658,0,0,1,.757.6,2.7,2.7,0,0,1,.013.32v1.189h-.458a1.732,1.732,0,0,1-.015-.175V429.4a1.556,1.556,0,0,0-.019-.261.272.272,0,0,0-.186-.24.316.316,0,0,0-.331.082.481.481,0,0,0-.126.35q0,.493,0,.987Z" transform="translate(-238.845 -427.002)" fill="#264a6e"/>
        <path id="Tracé_213" data-name="Tracé 213" d="M116.24,425.264v.483a.135.135,0,0,1-.091.139,1.655,1.655,0,0,1-2.435-1.238,2,2,0,0,1,.055-.8,1.562,1.562,0,0,1,1.476-1.16,1.744,1.744,0,0,1,.858.15.211.211,0,0,1,.145.23v.422c-.078-.053-.131-.086-.183-.124a1.2,1.2,0,0,0-.953-.194,1.04,1.04,0,0,0-.751.552,1.339,1.339,0,0,0-.055,1.185,1.141,1.141,0,0,0,1.594.565A3.047,3.047,0,0,0,116.24,425.264Z" transform="translate(-104.972 -422.457)" fill="#264a6e"/>
        <path id="Tracé_214" data-name="Tracé 214" d="M212.425,429.841l.384.211c-.051.074-.089.137-.133.192a1.086,1.086,0,0,1-1.137.3.989.989,0,0,1-.643-.913,1.284,1.284,0,0,1,.148-.7.945.945,0,0,1,.964-.515.89.89,0,0,1,.77.74,1.516,1.516,0,0,1,.036.238v.211h-1.406a.515.515,0,0,0,.3.517C211.953,430.217,212.181,430.141,212.425,429.841Zm-.1-.633a.432.432,0,0,0-.472-.386.422.422,0,0,0-.4.386Z" transform="translate(-181.674 -426.972)" fill="#264a6e"/>
        <path id="Tracé_215" data-name="Tracé 215" d="M238.095,429.631h-1.421a.485.485,0,0,0,.293.508c.291.08.468.051.719-.285l.386.211c-.04.063-.07.114-.1.16a1.054,1.054,0,0,1-1.141.333.97.97,0,0,1-.664-.913,1.265,1.265,0,0,1,.154-.719.938.938,0,0,1,.972-.5.882.882,0,0,1,.753.734A4.412,4.412,0,0,1,238.095,429.631Zm-1.406-.4h.907c-.091-.276-.23-.388-.451-.386S236.781,428.964,236.688,429.234Z" transform="translate(-201.612 -426.984)" fill="#264a6e"/>
        <path id="Tracé_216" data-name="Tracé 216" d="M88.327,429.987l.3-.616.276-.561h.536l-1.6,3.142h-.521c.021-.053.036-.1.059-.143.188-.363.371-.727.567-1.086a.352.352,0,0,0,0-.386c-.234-.436-.449-.883-.673-1.326-.03-.059-.057-.12-.093-.194h.569Z" transform="translate(-84.047 -427.292)" fill="#264a6e"/>
        <path id="Tracé_217" data-name="Tracé 217" d="M268.116,429.56a1.054,1.054,0,0,1-1.094,1.075,1.088,1.088,0,1,1,.023-2.176,1.054,1.054,0,0,1,1.071,1.1Zm-.47,0a2.2,2.2,0,0,0-.057-.28.592.592,0,0,0-1.1,0,.843.843,0,0,0,0,.552.595.595,0,0,0,1.1.015,1.964,1.964,0,0,0,.061-.293Z" transform="translate(-225.118 -427.015)" fill="#264a6e"/>
        <path id="Tracé_218" data-name="Tracé 218" d="M160.823,429.6a1.082,1.082,0,1,1-1.076-1.087A1.082,1.082,0,0,1,160.823,429.6Zm-.47,0a2.639,2.639,0,0,0-.057-.28.546.546,0,0,0-.536-.375.555.555,0,0,0-.563.363.81.81,0,0,0,0,.588.544.544,0,0,0,.548.356.536.536,0,0,0,.542-.363,1.966,1.966,0,0,0,.065-.3Z" transform="translate(-140.455 -427.059)" fill="#264a6e"/>
        <path id="Tracé_219" data-name="Tracé 219" d="M134.4,429.545a1.054,1.054,0,0,1-1.08,1.09,1.088,1.088,0,1,1,0-2.176,1.054,1.054,0,0,1,1.08,1.086Zm-.47,0a.6.6,0,0,0-.574-.649.58.58,0,0,0-.633.6.955.955,0,0,0,.03.278.592.592,0,0,0,1.122.04A2.423,2.423,0,0,0,133.927,429.545Z" transform="translate(-119.598 -427.014)" fill="#264a6e"/>
        <path id="Tracé_220" data-name="Tracé 220" d="M198.081,426.349h-.5v-2.79h-.727v-.449h1.944v.443h-.713Z" transform="translate(-170.592 -422.794)" fill="#264a6e"/>
        <path id="Tracé_221" data-name="Tracé 221" d="M253.561,429.137a.827.827,0,0,0-.742-.228.55.55,0,0,0-.342.232.757.757,0,0,0,.065.9c.234.234.593.211,1.014-.07v.464c0,.034-.053.076-.091.093a1.056,1.056,0,0,1-1.579-.919,1.378,1.378,0,0,1,.055-.436,1.111,1.111,0,0,1,1.533-.607.137.137,0,0,1,.089.139C253.559,428.832,253.561,428.962,253.561,429.137Z" transform="translate(-214.023 -427.012)" fill="#264a6e"/>
        <path id="Tracé_222" data-name="Tracé 222" d="M149.971,425.177h-.451V421.62h.451Z" transform="translate(-133.242 -421.618)" fill="#264a6e"/>
        <path id="Tracé_223" data-name="Tracé 223" d="M227.09,421.61h.451v3.549h-.451Z" transform="translate(-194.456 -421.61)" fill="#264a6e"/>
        <path id="Tracé_224" data-name="Tracé 224" d="M176.421,428.629a.661.661,0,0,1,.831-.072l-.181.407c-.051-.015-.093-.03-.137-.038a.394.394,0,0,0-.521.371c-.017.152-.011.308-.013.462v.795h-.46v-2.043h.335C176.385,428.511,176.4,428.56,176.421,428.629Z" transform="translate(-154.091 -427.001)" fill="#264a6e"/>
      </g>
      <path id="Tracé_1878" data-name="Tracé 1878" d="M6.541-6.366H5.109L4.54-7.847H1.934L1.4-6.366H0l2.539-6.519H3.931ZM4.117-8.945l-.9-2.419-.88,2.419ZM7.343-6.366v-6.519H8.624l2.668,4.353v-4.353h1.223v6.519H11.194L8.566-10.617v4.251Zm6.65-6.519H16.4a4.7,4.7,0,0,1,1.241.125,2.18,2.18,0,0,1,.983.6,2.848,2.848,0,0,1,.623,1.056,4.811,4.811,0,0,1,.213,1.541,4.284,4.284,0,0,1-.2,1.387,2.874,2.874,0,0,1-.7,1.152,2.314,2.314,0,0,1-.925.52,3.982,3.982,0,0,1-1.165.138H13.993Zm1.316,1.1v4.318h.983a3.586,3.586,0,0,0,.8-.062,1.215,1.215,0,0,0,.531-.271,1.38,1.38,0,0,0,.345-.629A4.253,4.253,0,0,0,18.1-9.621a3.894,3.894,0,0,0-.133-1.161,1.492,1.492,0,0,0-.374-.631,1.252,1.252,0,0,0-.609-.307,5.967,5.967,0,0,0-1.08-.062ZM26.543-6.366H25.111l-.569-1.481H21.936L21.4-6.366H20l2.539-6.519h1.392ZM24.12-8.945l-.9-2.419-.88,2.419Zm3.217,2.579v-6.519h2.77a4.741,4.741,0,0,1,1.518.176,1.5,1.5,0,0,1,.758.625,1.878,1.878,0,0,1,.285,1.027,1.74,1.74,0,0,1-.431,1.212,2.071,2.071,0,0,1-1.289.6,3.071,3.071,0,0,1,.7.547A7.429,7.429,0,0,1,32.4-7.638l.8,1.272H31.623l-.952-1.418a9.2,9.2,0,0,0-.694-.958,1.01,1.01,0,0,0-.4-.271,2.169,2.169,0,0,0-.663-.073h-.267v2.721Zm1.316-3.762h.974a5.029,5.029,0,0,0,1.183-.08.709.709,0,0,0,.369-.276.849.849,0,0,0,.133-.489.782.782,0,0,0-.176-.531.806.806,0,0,0-.5-.256q-.16-.022-.96-.022H28.653ZM34-12.885H36.4a4.7,4.7,0,0,1,1.241.125,2.18,2.18,0,0,1,.983.6,2.848,2.848,0,0,1,.623,1.056,4.811,4.811,0,0,1,.213,1.541,4.284,4.284,0,0,1-.2,1.387,2.874,2.874,0,0,1-.7,1.152,2.314,2.314,0,0,1-.925.52,3.982,3.982,0,0,1-1.165.138H34Zm1.316,1.1v4.318h.983a3.586,3.586,0,0,0,.8-.062,1.215,1.215,0,0,0,.531-.271,1.38,1.38,0,0,0,.345-.629A4.252,4.252,0,0,0,38.1-9.621a3.894,3.894,0,0,0-.133-1.161,1.492,1.492,0,0,0-.374-.631,1.252,1.252,0,0,0-.609-.307,5.967,5.967,0,0,0-1.08-.062Zm8.132,5.416v-6.376h2.979v.4H43.884v2.557H46.24v.4H43.884v2.615H46.57v.4Zm9.153,0L48.8-11.52a3.113,3.113,0,0,1-.2-.311l-.058-.089h-.018q.009.116.009.28v5.274h-.44v-6.376h.338L52.2-7.633q.125.169.271.409h.022q-.022-.311-.022-.534v-4.985h.44v6.376Zm4.624,0v-6.376h.44v5.976h2.557v.4Zm4.262,0v-6.376h.44v6.376Zm6.779-.445a4.092,4.092,0,0,1-2.032.556,2.715,2.715,0,0,1-2.108-.885,3.316,3.316,0,0,1-.8-2.321,3.494,3.494,0,0,1,.867-2.419,2.955,2.955,0,0,1,2.317-.969,4.117,4.117,0,0,1,1.632.338v.48a3.886,3.886,0,0,0-1.694-.418,2.465,2.465,0,0,0-1.936.823,3.041,3.041,0,0,0-.731,2.1,3.032,3.032,0,0,0,.687,2.105,2.369,2.369,0,0,0,1.852.763,2.978,2.978,0,0,0,1.512-.374v-2.1h-1.5v-.4h1.943Zm6.072.445-3.8-5.153a3.113,3.113,0,0,1-.2-.311l-.058-.089h-.018q.009.116.009.28v5.274h-.44v-6.376h.338l3.771,5.109q.125.169.271.409h.022q-.022-.311-.022-.534v-4.985h.44v6.376Zm2.039,0v-6.376h2.979v.4H76.812v2.557h2.357v.4H76.812v2.615H79.5v.4Z" transform="translate(65.575 23.513)" fill="#264a6e"/>
      <path id="Tracé_1880" data-name="Tracé 1880" d="M.65-8.6,1.931-8.72a1.562,1.562,0,0,0,.469.947,1.418,1.418,0,0,0,.954.3,1.466,1.466,0,0,0,.958-.269.8.8,0,0,0,.322-.629A.593.593,0,0,0,4.5-8.762a1.084,1.084,0,0,0-.474-.282q-.231-.08-1.054-.285a3.575,3.575,0,0,1-1.485-.645,1.7,1.7,0,0,1-.6-1.312,1.676,1.676,0,0,1,.282-.932,1.768,1.768,0,0,1,.814-.66A3.261,3.261,0,0,1,3.265-13.1a2.752,2.752,0,0,1,1.848.538,1.9,1.9,0,0,1,.651,1.436l-1.316.058a1.118,1.118,0,0,0-.362-.723,1.327,1.327,0,0,0-.834-.22,1.5,1.5,0,0,0-.9.236.475.475,0,0,0-.209.4.5.5,0,0,0,.2.4,3.46,3.46,0,0,0,1.209.436,6.383,6.383,0,0,1,1.421.469,1.831,1.831,0,0,1,.72.663,1.938,1.938,0,0,1,.26,1.038,1.92,1.92,0,0,1-.311,1.049,1.865,1.865,0,0,1-.88.727,3.692,3.692,0,0,1-1.418.238,2.824,2.824,0,0,1-1.9-.571A2.485,2.485,0,0,1,.65-8.6Z" transform="translate(53.618 23.621)" fill="#264a6e"/>
      <path id="Tracé_1879" data-name="Tracé 1879" d="M2.321-6.366v-5.416H.387v-1.1h5.18v1.1H3.637v5.416Z" transform="translate(59.819 23.513)" fill="#264a6e"/>
    </g>
  </g>
</svg>
