<svg xmlns="http://www.w3.org/2000/svg" width="14.537" height="16.157" viewBox="0 0 14.537 16.157">
  <g id="picto_reglage" data-name="picto reglage" transform="translate(-1.203)">
    <path id="Tracé_231" data-name="Tracé 231" d="M10.693,8a2.693,2.693,0,1,0,2.693,2.693A2.693,2.693,0,0,0,10.693,8Zm0,4.039a1.346,1.346,0,1,1,1.346-1.346A1.346,1.346,0,0,1,10.693,12.039Z" transform="translate(-2.221 -2.614)" fill="#264a6e"/>
    <path id="Tracé_232" data-name="Tracé 232" d="M14.728,9.358l-.3-.172a6.126,6.126,0,0,0,0-2.215l.3-.172a2.021,2.021,0,1,0-2.02-3.5l-.3.173a6.043,6.043,0,0,0-1.918-1.105V2.02a2.02,2.02,0,1,0-4.039,0v.345A6.043,6.043,0,0,0,4.535,3.473l-.3-.174a2.021,2.021,0,1,0-2.02,3.5l.3.172a6.126,6.126,0,0,0,0,2.215l-.3.172a2.021,2.021,0,1,0,2.02,3.5l.3-.173a6.043,6.043,0,0,0,1.919,1.105v.345a2.02,2.02,0,0,0,4.039,0v-.345a6.043,6.043,0,0,0,1.917-1.108l.3.174a2.021,2.021,0,1,0,2.02-3.5ZM13.013,6.816a4.745,4.745,0,0,1,0,2.525.673.673,0,0,0,.312.763l.73.421a.673.673,0,1,1-.673,1.167l-.731-.423a.673.673,0,0,0-.818.111A4.7,4.7,0,0,1,9.65,12.641a.673.673,0,0,0-.506.652v.844a.673.673,0,0,1-1.346,0v-.843a.673.673,0,0,0-.506-.652A4.7,4.7,0,0,1,5.11,11.377a.673.673,0,0,0-.818-.111l-.73.422a.673.673,0,1,1-.673-1.166l.73-.421a.673.673,0,0,0,.312-.763,4.745,4.745,0,0,1,0-2.525.673.673,0,0,0-.313-.76l-.73-.421a.673.673,0,0,1,.673-1.167l.731.423A.673.673,0,0,0,5.11,4.78,4.7,4.7,0,0,1,7.293,3.518.673.673,0,0,0,7.8,2.862V2.02a.673.673,0,1,1,1.346,0v.843a.673.673,0,0,0,.506.652A4.7,4.7,0,0,1,11.834,4.78a.673.673,0,0,0,.818.111l.73-.422a.673.673,0,1,1,.673,1.166l-.73.421a.673.673,0,0,0-.312.76Z" fill="#264a6e"/>
  </g>
</svg>
