<svg id="picto_boutique" data-name="picto boutique" xmlns="http://www.w3.org/2000/svg" width="14.848" height="15.127" viewBox="0 0 14.848 15.127">
  <path id="Tracé_233" data-name="Tracé 233" d="M14.4,2.586A1.9,1.9,0,0,0,12.944,1.9H2.69L2.664,1.68A1.9,1.9,0,0,0,.775,0H.634a.634.634,0,0,0,0,1.268H.775a.634.634,0,0,1,.63.56l.873,7.42a3.171,3.171,0,0,0,3.149,2.8H12.05a.634.634,0,1,0,0-1.268H5.427A1.9,1.9,0,0,1,3.638,9.513H11.2A3.171,3.171,0,0,0,14.319,6.9l.5-2.761A1.9,1.9,0,0,0,14.4,2.586Zm-.833,1.332-.5,2.761A1.9,1.9,0,0,1,11.2,8.245H3.437l-.6-5.074h10.1a.634.634,0,0,1,.628.747Z" fill="#264a6e"/>
  <circle id="Ellipse_30" data-name="Ellipse 30" cx="1.418" cy="1.418" r="1.418" transform="translate(2.836 12.291)" fill="#264a6e"/>
  <circle id="Ellipse_31" data-name="Ellipse 31" cx="1.418" cy="1.418" r="1.418" transform="translate(9.455 12.291)" fill="#264a6e"/>
</svg>
