<svg xmlns="http://www.w3.org/2000/svg" width="14.535" height="12.763" viewBox="0 0 14.535 12.763">
  <path id="picto_credit" data-name="picto credit" d="M130.328,84.426c-.23,0-.479,0-.709.018V80.172H129.6a.6.6,0,0,0,.018-.177c0-1.1-2.393-1.6-4.609-1.6s-4.609.5-4.609,1.6a.6.6,0,0,0,.018.177H120.4v6.913c0,1.1,2.393,1.6,4.609,1.6.23,0,.479,0,.709-.018v.9c0,1.1,2.393,1.6,4.609,1.6s4.609-.5,4.609-1.6V86.021c0-1.1-2.393-1.6-4.609-1.6Zm-1.542.089a.287.287,0,0,0,.124-.071V84.5A.3.3,0,0,0,128.786,84.514Zm-3.776-5.406c2.535,0,3.9.62,3.9.886s-1.365.886-3.9.886-3.9-.62-3.9-.886S122.476,79.108,125.011,79.108Zm-3.9,1.79a11.345,11.345,0,0,0,7.8,0v.869c0,.266-1.365.886-3.9.886s-3.9-.62-3.9-.886Zm0,1.773a11.345,11.345,0,0,0,7.8,0v.869c0,.266-1.365.886-3.9.886s-3.9-.62-3.9-.886Zm0,1.773a9.1,9.1,0,0,0,3.9.691,14.709,14.709,0,0,0,1.542-.089c-.514.248-.833.567-.833.975v.16c-.23.018-.479.018-.709.018-2.535,0-3.9-.62-3.9-.886Zm3.9,3.527c-2.535,0-3.9-.62-3.9-.886v-.869a9.1,9.1,0,0,0,3.9.691c.23,0,.479,0,.709-.018v1.064c-.23.018-.479.018-.709.018Zm5.318,2.482c-2.535,0-3.9-.62-3.9-.886V88.7a11.345,11.345,0,0,0,7.8,0v.869C134.228,89.832,132.863,90.453,130.328,90.453Zm0-1.773c-2.535,0-3.9-.62-3.9-.886v-.869a11.345,11.345,0,0,0,7.8,0v.869C134.228,88.06,132.863,88.68,130.328,88.68Zm0-1.773c-2.535,0-3.9-.62-3.9-.886s1.365-.886,3.9-.886,3.9.62,3.9.886S132.863,86.907,130.328,86.907Z" transform="translate(-120.402 -78.399)" fill="#fff"/>
</svg>
