<svg xmlns="http://www.w3.org/2000/svg" width="12" height="12" viewBox="0 0 12 12">
  <path id="picto_appel-telephonique_blanc" data-name="picto appel-telephonique blanc" d="M6.53.5a.5.5,0,0,1,.5-.5,5.014,5.014,0,0,1,5.008,5.008.5.5,0,0,1-1,0A4.011,4.011,0,0,0,7.031,1a.5.5,0,0,1-.5-.5Zm.5,2.5a2,2,0,0,1,2,2,.5.5,0,0,0,1,0,3.008,3.008,0,0,0-3-3,.5.5,0,0,0,0,1Zm4.554,5.378a1.553,1.553,0,0,1,0,2.193l-.456.525C7.028,15.027-2.954,5.048.912.934l.576-.5a1.543,1.543,0,0,1,2.167.02c.016.016.944,1.221.944,1.221a1.553,1.553,0,0,1,0,2.145l-.58.729A6.4,6.4,0,0,0,7.487,8.026l.734-.583a1.553,1.553,0,0,1,2.144,0S11.569,8.367,11.585,8.382Zm-.689.728s-1.2-.922-1.214-.938a.551.551,0,0,0-.776,0c-.014.014-1.024.819-1.024.819a.5.5,0,0,1-.49.076A7.517,7.517,0,0,1,2.974,4.657a.5.5,0,0,1,.073-.5s.8-1.011.818-1.024a.551.551,0,0,0,0-.776c-.016-.015-.938-1.214-.938-1.214a.551.551,0,0,0-.756.02l-.576.5C-1.23,5.06,7.42,13.23,10.4,10.416l.456-.526a.561.561,0,0,0,.043-.78Z" transform="translate(-0.039 0.002)" fill="#fff"/>
</svg>
