<svg xmlns="http://www.w3.org/2000/svg" width="10.056" height="13.408" viewBox="0 0 10.056 13.408">
  <g id="picto_compte" data-name="picto compte" transform="translate(-3)">
    <path id="Tracé_229" data-name="Tracé 229" d="M9.352,6.7A3.352,3.352,0,1,0,6,3.352,3.352,3.352,0,0,0,9.352,6.7Zm0-5.587A2.235,2.235,0,1,1,7.117,3.352,2.235,2.235,0,0,1,9.352,1.117Z" transform="translate(-1.324)" fill="#264a6e"/>
    <path id="Tracé_230" data-name="Tracé 230" d="M8.028,14A5.034,5.034,0,0,0,3,19.028a.559.559,0,0,0,1.117,0,3.911,3.911,0,1,1,7.821,0,.559.559,0,0,0,1.117,0A5.034,5.034,0,0,0,8.028,14Z" transform="translate(0 -6.179)" fill="#264a6e"/>
  </g>
</svg>
