<svg xmlns="http://www.w3.org/2000/svg" width="16.154" height="17.5" viewBox="0 0 16.154 17.5">
  <g id="picto_deco" data-name="picto deco" transform="translate(-91.537 -0.005)">
    <path id="Tracé_243" data-name="Tracé 243" d="M102.979,14.14a.673.673,0,0,0-.673.673v1.346H92.883V1.351h9.423V2.7a.673.673,0,0,0,1.346,0V.678a.673.673,0,0,0-.673-.673H92.21a.673.673,0,0,0-.673.673V16.832a.673.673,0,0,0,.673.673H102.98a.673.673,0,0,0,.673-.673V14.813a.673.673,0,0,0-.673-.673Z" transform="translate(0 0)" fill="#264a6e"/>
    <path id="Tracé_244" data-name="Tracé 244" d="M190.954,133.459l-4.038-4.038a.673.673,0,0,0-.952.952l2.89,2.889H178.362a.673.673,0,1,0,0,1.346h10.491l-2.89,2.89a.673.673,0,1,0,.952.952l4.038-4.038a.672.672,0,0,0,0-.952Z" transform="translate(-83.46 -125.18)" fill="#264a6e"/>
  </g>
</svg>
