<svg xmlns="http://www.w3.org/2000/svg" width="15.981" height="15.98" viewBox="0 0 15.981 15.98">
  <path id="picto_mes_appels" data-name="picto mes appels" d="M8.683.666A.667.667,0,0,1,9.35,0,6.677,6.677,0,0,1,16.02,6.669a.667.667,0,0,1-1.334,0A5.342,5.342,0,0,0,9.35,1.333.667.667,0,0,1,8.683.666ZM9.35,4a2.668,2.668,0,0,1,2.668,2.668.667.667,0,0,0,1.334,0,4.006,4.006,0,0,0-4-4A.667.667,0,0,0,9.35,4Zm6.064,7.162a2.068,2.068,0,0,1,0,2.92l-.607.7C9.346,20.012-3.947,6.724,1.2,1.244L1.969.577A2.055,2.055,0,0,1,4.855.6C4.876.624,6.112,2.23,6.112,2.23a2.068,2.068,0,0,1,0,2.856l-.772.971a8.524,8.524,0,0,0,4.623,4.632l.977-.777a2.068,2.068,0,0,1,2.855,0S15.394,11.143,15.415,11.163Zm-.918.97s-1.6-1.228-1.617-1.249a.734.734,0,0,0-1.033,0c-.018.019-1.363,1.09-1.363,1.09a.667.667,0,0,1-.653.1A10.01,10.01,0,0,1,3.948,6.2a.667.667,0,0,1,.1-.667s1.072-1.346,1.09-1.363a.734.734,0,0,0,0-1.033c-.021-.02-1.249-1.617-1.249-1.617a.734.734,0,0,0-1.007.026l-.767.667c-3.763,4.525,7.756,15.4,11.721,11.657l.608-.7a.748.748,0,0,0,.057-1.038Z" transform="translate(-0.039 0.002)" fill="#264a6e"/>
</svg>
