<svg id="picto_horloge_blanc" data-name="picto horloge blanc" xmlns="http://www.w3.org/2000/svg" width="12.473" height="12.473" viewBox="0 0 12.473 12.473">
  <path id="Tracé_240" data-name="Tracé 240" d="M6.236,0a6.236,6.236,0,1,0,6.236,6.236A6.236,6.236,0,0,0,6.236,0Zm0,11.434a5.2,5.2,0,1,1,5.2-5.2A5.2,5.2,0,0,1,6.236,11.434Z" fill="#fff"/>
  <path id="Tracé_241" data-name="Tracé 241" d="M9.674,6a.52.52,0,0,0-.52.52V8.767L7.4,9.865a.521.521,0,1,0,.552.884l2-1.247a.52.52,0,0,0,.244-.446V6.52A.52.52,0,0,0,9.674,6Z" transform="translate(-3.438 -2.882)" fill="#fff"/>
</svg>
